<svg xmlns="http://www.w3.org/2000/svg" viewBox="0 0 500 500" xmlns:bx="https://boxy-svg.com">
    <g transform="matrix(4.529974, 0, 0, 4.603577, 16.953478, 19.848825)" style="">
        <circle fill="#8e50ae" stroke="#3d2065" cx="48" cy="48" r="46.918"></circle>
        <g>
            <g transform="translate(5 22)">
                <path d="M41.54 55.64c21.02 0 32.245-20.958 32.245-37.009 0-14.55-5.511-7.076-24.252-5.5-1.933.163-34.839-10.55-34.839 5.5s5.827 37.01 26.846 37.01" fill="#076f00"></path>
                <path d="M43.013 48.4c15.747 0 25.707-12.283 25.707-24.97s-9.96-7.33-25.707-7.33-22.316-5.356-22.316 7.33S27.265 48.4 43.013 48.4" fill="#a2ffbd"></path>
                <ellipse fill="#550072" cx="47.523" cy="29.461" rx="6.003" ry="5.942"></ellipse>
            </g>
        </g>
        <path d="M50.338 28.714c20.764 1.023 32.95-7.89 32.95-7.89S70.985 42.247 47.175 40.601 9.002 25.912 9.002 25.912s20.548 1.778 41.336 2.802" fill="#3d2065"></path>
    </g>
    <g transform="matrix(4.116786, 0, 0, 3.783603, 439.527191, 442.119324)" vector-effect="non-scaling-stroke" style="">
        <path style="stroke: rgb(55,15,80); stroke-width: 1; stroke-dasharray: none; stroke-linecap: butt; stroke-dashoffset: 0; stroke-linejoin: miter; stroke-miterlimit: 4; fill: rgb(119,63,155); fill-rule: nonzero; opacity: 1;" vector-effect="non-scaling-stroke" transform=" translate(-12, -12)" d="M 15.891 17.016 L 19.125 17.016 L 17.484 12.656999999999998 z M 18.516 9.984 L 23.016 21.984 L 21 21.984 L 19.875 18.984 L 15.141 18.984 L 14.016 21.984 L 12 21.984 L 16.5 9.984000000000002 L 18.516 9.984000000000002 z M 12.891 15.047 L 12.094 17.11 L 9 14.016 L 3.984 18.985 L 2.5780000000000003 17.579 L 7.687 12.563 Q 5.812 10.5 4.687 8.016000000000002 L 6.703 8.016000000000002 Q 7.687 9.891000000000002 9 11.344000000000001 Q 11.156 8.953000000000001 12.188 6.000000000000001 L 0.9850000000000012 6.000000000000001 L 0.9850000000000012 3.984000000000001 L 8.016000000000002 3.984000000000001 L 8.016000000000002 2.0150000000000006 L 9.985000000000001 2.0150000000000006 L 9.985000000000001 3.984000000000001 L 17.016000000000002 3.984000000000001 L 17.016000000000002 6.000000000000001 L 14.063000000000002 6.000000000000001 Q 13.594000000000003 7.500000000000001 12.516000000000002 9.398000000000001 Q 11.438 11.296000000000003 10.360000000000001 12.515 L 10.313 12.562000000000001 z" stroke-linecap="round"></path>
    </g>
</svg>
