<svg width="689" height="1224" viewBox="0 0 689 1224" xmlns="http://www.w3.org/2000/svg"><desc>Juke AI. Modified version for small icons.</desc><g fill="none" fill-rule="evenodd"><path d="M31.553 879.755c31.462 18.463 82.719-94.715 54.284 19.947s-97.372 274.167-12.683 314.737c101.604 48.674 238.033-117.92 296.087-117.92s174.53 184.366 247.961 86.31c73.432-98.054 34.784-206.288 18.023-289.895-6.646-33.154 66.864-3.847 50.543-88.1-16.32-84.252-105.865-168.67-108.592-189.401C529.8 255.323 101.933-.001 101.933-.001s86.957 515.125-54.89 670.578C-25.726 750.323.089 861.29 31.552 879.755" fill="#fff"/><path d="M154.042 489.925c24.828-197.1-25.43-442.475-25.43-442.475s201.746 135.851 310.42 300.505C547.705 512.61 599.292 832.12 599.292 832.12s65.996 240.442 24.24 300.179c-87.9 125.75-181.735-46.76-231.13-65.268-86.44-32.387-327.37 267.844-327.37 55.516 0-36.17 20.981-126.956 38.25-210.712 10.14-49.18 21.336-94.394 20.012-128.825-3.58-93.065-72.415 142.947-92.526 33.03-20.11-109.916 97.844-124.234 123.274-326.115" fill="#333"/><path d="M169.09 500.216c23.125-186.008-22.158-424.237-22.158-424.237s176.187 118.888 283.653 279.303C538.05 515.697 579.742 807.545 579.742 807.545s68.586 253.946 30.129 310.349c-80.953 118.73-169.316-55.605-214.808-73.08-79.609-30.579-312.187 262.104-312.187 61.626 0-54.206 56.196-289.015 51.9-320.899-10.119-75.092-66.774 93.649-95.415 29.19-28.641-64.457 111.199-165.47 129.73-314.515" fill="#f5f5f5"/><path d="M579.731 763.395c10.61 15.947 4.637 54.772 18.534 63.104 34.696 20.804 72.905 33.37 72.905 0 0-52.235-124.47-227.56-124.47-181.697 0 18.372 8.236 81.325 33.03 118.593" fill="#333"/><path d="M561.215 766.258c37.1 55.764 104.417 93.228 96.009 42.953S523.931 595.774 523.931 641.638c0 18.372 12.49 87.352 37.284 124.62" fill="#f5f5f5"/><path d="M49.222 829.84c9.178 2.766 28.574-27.005 50.77-49.746 24.43-25.03 71.276-52.908 67.363-38.59-1.75 6.402-49.09 36.461-59.46 46.16-18.473 17.275-54.35 57.082-55.293 55.832-2.413-3.2-22.66-19.468-3.38-13.657m526.442-40.567c-7.362-35.908-9.806-67.561-6.17-67.561 1.916 0 15.452 52.583 21.391 76.494 5.33 21.457 10.963 41.554 5.007 46.02-5.913 4.432-1.198 6.44-2.14 5.19-1.444-1.914-7.127-6.684-18.088-60.143" fill="#333"/><g transform="matrix(1.2 0 0 1.2 182.995 400.549)"><path d="M119.41 159.477c60.11 0 92.211-59.886 92.211-105.75 0-41.574-15.76-20.22-69.353-15.716-5.529.465-99.629-30.147-99.629 15.716s16.663 105.75 76.772 105.75" fill="#333"/><path d="M123.707 139.757c45.081 0 73.594-35.215 73.594-71.589S168.788 47.15 123.707 47.15 59.824 31.794 59.824 68.168s18.802 71.589 63.883 71.589" fill="#f5f5f5"/><ellipse fill="#333" cx="136.595" cy="83.593" rx="17.185" ry="15.75"/><path d="M132.244 29.036C191.564 33.125 224.001.678 224.001.678S194.2 64.071 126.177 59.381.495 12.239.495 12.239s72.428 12.707 131.749 16.797" fill="#333"/></g><path d="M346.975 648.574c-71.184 4.908-94.082-28.2-94.082-28.2s12.456 69.06 94.082 63.432 87.953-56.56 87.953-56.56-16.768 16.422-87.953 21.328" fill="#333"/></g></svg>