<svg xmlns="http://www.w3.org/2000/svg" viewBox="0 0 500 500">
    <circle fill="#8e50ae" stroke="#3d2065" cx="48" cy="48" r="46.918" transform="matrix(4.52997, 0, 0, 4.60358, 14.678, 20.014)"></circle>
    <g transform="matrix(4.52997, 0, 0, 4.60358, 14.678, 20.014)">
        <g transform="translate(5 22)">
            <path d="M41.54 55.64c21.02 0 32.245-20.958 32.245-37.009 0-14.55-5.511-7.076-24.252-5.5-1.933.163-34.839-10.55-34.839 5.5s5.827 37.01 26.846 37.01" fill="#076f00"></path>
            <path d="M43.013 48.4c15.747 0 25.707-12.283 25.707-24.97s-9.96-7.33-25.707-7.33-22.316-5.356-22.316 7.33S27.265 48.4 43.013 48.4" fill="#a2ffbd"></path>
            <ellipse fill="#550072" cx="47.523" cy="29.461" rx="6.003" ry="5.942"></ellipse>
        </g>
    </g>
    <path d="M 242.708 152.201 C 336.768 156.911 391.97 115.879 391.97 115.879 C 391.97 115.879 336.238 214.501 228.379 206.924 C 120.521 199.346 55.457 139.302 55.457 139.302 C 55.457 139.302 148.539 147.487 242.708 152.201" fill="#3d2065"></path>
    <path style="stroke: rgb(55, 15, 80); stroke-width: 2px; opacity: 1; fill: rgb(255, 255, 255);" vector-effect="non-scaling-stroke" d="M 398.533 440.039 L 439.156 440.039 L 418.543 395.328 L 398.533 440.039 Z M 431.503 367.91 L 488.028 490.997 L 462.707 490.997 L 448.574 460.225 L 389.112 460.225 L 374.982 490.997 L 349.659 490.997 L 406.182 367.91 L 431.503 367.91 Z M 360.853 419.843 L 350.84 441.002 L 311.978 409.268 L 248.971 460.236 L 231.314 445.815 L 295.487 394.364 C 279.787 380.258 267.224 364.711 257.803 347.725 L 283.126 347.725 C 291.363 360.548 300.985 371.925 311.978 381.86 C 330.03 365.512 343.381 347.24 352.02 327.049 L 211.304 327.049 L 211.304 306.37 L 299.619 306.37 L 299.619 286.174 L 324.35 286.174 L 324.35 306.37 L 412.665 306.37 L 412.665 327.049 L 375.571 327.049 C 371.645 337.304 365.168 348.923 356.142 361.899 C 347.115 374.88 338.088 385.536 329.061 393.873 L 328.469 394.355 L 360.853 419.843 Z" stroke-linecap="round"></path>
</svg>
