<?xml version="1.0" encoding="UTF-8" standalone="no" ?>
<!DOCTYPE svg PUBLIC "-//W3C//DTD SVG 1.1//EN" "http://www.w3.org/Graphics/SVG/1.1/DTD/svg11.dtd">
<svg xmlns="http://www.w3.org/2000/svg" xmlns:xlink="http://www.w3.org/1999/xlink" version="1.1" width="120" height="130" viewBox="334.28 314.28 120 130" xml:space="preserve">
<desc>Created with Fabric.js 5.2.4</desc>
<defs>
</defs>
<rect x="0" y="0" width="100%" height="100%" fill="transparent"></rect>
<g transform="matrix(Infinity NaN NaN Infinity 0 0)" id="2ec415ec-84b8-4485-9c3b-896dd7b6a9be"  >
</g>
<g transform="matrix(1 0 0 1 60 60)" id="fcebcd29-3339-4bc4-b10f-eaa46d17cb9a"  >
<rect style="stroke: none; stroke-width: 1; stroke-dasharray: none; stroke-linecap: butt; stroke-dashoffset: 0; stroke-linejoin: miter; stroke-miterlimit: 4; fill: rgb(255,255,255); fill-rule: nonzero; opacity: 1; visibility: hidden;" vector-effect="non-scaling-stroke"  x="-60" y="-60" rx="0" ry="0" width="120" height="120" />
</g>
<g transform="matrix(0.39 0 0 0.39 387.27 384.23)"  >
<g style="" vector-effect="non-scaling-stroke"   >
		<g transform="matrix(1 0 0 1 0 0)"  >
<rect style="stroke: none; stroke-width: 1; stroke-dasharray: none; stroke-linecap: butt; stroke-dashoffset: 0; stroke-linejoin: miter; stroke-miterlimit: 4; fill: rgb(255,255,255); fill-rule: nonzero; opacity: 1; visibility: hidden;" vector-effect="non-scaling-stroke"  x="-540" y="-540" rx="0" ry="0" width="1080" height="1080" />
</g>
		<g transform="matrix(0.26 0 0 0.26 0 0.01)"  >
<path style="stroke: none; stroke-width: 1; stroke-dasharray: none; stroke-linecap: butt; stroke-dashoffset: 0; stroke-linejoin: miter; stroke-miterlimit: 4; fill: rgb(255,255,255); fill-rule: evenodd; opacity: 1;" vector-effect="non-scaling-stroke"  transform=" translate(-344.68, -612.22)" d="M 32.1057306 880.304614 C 63.5680503 898.768359 114.824809 785.589771 86.3901239 900.252063 C 57.9554392 1014.91436 -10.9817647 1174.41872 73.7073724 1214.98943 C 175.310574 1263.66289 311.740469 1097.06951 369.794058 1097.06951 C 427.847646 1097.06951 544.323385 1281.43523 617.75527 1183.37993 C 691.187154 1085.32463 652.538505 977.091349 635.777775 893.48363 C 629.131567 860.330284 702.641745 889.636641 686.32111 805.384204 C 670.000475 721.131767 580.456316 636.714388 577.728825 615.982532 C 530.352665 255.872928 102.4865 0.549487327 102.4865 0.549487327 C 102.4865 0.549487327 189.442768 515.673633 47.5953411 671.126697 C -25.1716803 750.873342 0.643410938 861.840869 32.1057306 880.304614 Z" stroke-linecap="round" />
</g>
		<g transform="matrix(0.26 0 0 0.26 -2.93 3.03)"  >
<path style="stroke: none; stroke-width: 1; stroke-dasharray: none; stroke-linecap: butt; stroke-dashoffset: 0; stroke-linejoin: miter; stroke-miterlimit: 4; fill: rgb(54,15,80); fill-rule: evenodd; opacity: 1;" vector-effect="non-scaling-stroke"  transform=" translate(-304.48, -575.82)" d="M 125.595373 442.475139 C 150.423219 245.375432 100.165294 4.57441036e-13 100.165294 4.57441036e-13 C 100.165294 4.57441036e-13 301.911081 135.851065 410.584754 300.505463 C 519.258427 465.159862 570.845835 784.669932 570.845835 784.669932 C 570.845835 784.669932 636.840505 1025.11218 595.084422 1084.849 C 507.185648 1210.59819 413.349574 1038.08829 363.954926 1019.58121 C 277.515427 987.194237 36.5844311 1287.4253 36.5844329 1075.09703 C 36.5844332 1038.9265 57.5659669 948.140954 74.8344684 864.385257 C 84.9744421 815.204349 96.1713213 769.990548 94.8468257 735.560248 C 91.2666975 642.494718 22.4317413 878.50728 2.32148938 768.590401 C -17.7887625 658.673523 100.165296 644.355749 125.595373 442.475139 Z" stroke-linecap="round" />
</g>
		<g transform="matrix(0.26 0 0 0.26 -4.07 3.89)"  >
<path style="stroke: none; stroke-width: 1; stroke-dasharray: none; stroke-linecap: butt; stroke-dashoffset: 0; stroke-linejoin: miter; stroke-miterlimit: 4; fill: rgb(119,63,155); fill-rule: evenodd; opacity: 1;" vector-effect="non-scaling-stroke"  transform=" translate(-300.1, -579.11)" d="M 140.643102 452.766039 C 163.768493 266.758023 118.485462 28.5292829 118.485462 28.5292829 C 118.485462 28.5292829 294.672499 147.417141 402.137879 307.832137 C 509.603259 468.247132 551.294995 760.094802 551.294995 760.094802 C 551.294995 760.094802 619.880593 1014.0409 581.424028 1070.44375 C 500.470914 1189.17474 412.107875 1014.83856 366.616336 997.364377 C 287.007186 966.784958 54.4291326 1259.46755 54.4291343 1058.98953 C 54.4291347 1004.78396 110.624563 769.974639 106.32841 738.091026 C 96.2100886 662.998598 39.554822 831.739614 10.9137971 767.281667 C -17.7272277 702.823721 122.113044 601.811709 140.643102 452.766039 Z" stroke-linecap="round" />
</g>
		<g transform="matrix(0.26 0 0 0.26 69.18 34.09)"  >
<path style="stroke: none; stroke-width: 1; stroke-dasharray: none; stroke-linecap: butt; stroke-dashoffset: 0; stroke-linejoin: miter; stroke-miterlimit: 4; fill: rgb(55,15,80); fill-rule: evenodd; opacity: 1;" vector-effect="non-scaling-stroke"  transform=" translate(-580.49, -694.71)" d="M 551.283804 715.944614 C 561.893821 731.891979 555.921437 770.716682 569.81796 779.049095 C 604.513794 799.85286 642.722516 812.419011 642.722516 779.04909 C 642.722516 726.813668 518.252926 551.488353 518.252926 597.351784 C 518.252926 615.724373 526.489027 678.676874 551.283804 715.944614 Z" stroke-linecap="round" />
</g>
		<g transform="matrix(0.26 0 0 0.26 64.48 31.75)"  >
<path style="stroke: none; stroke-width: 1; stroke-dasharray: none; stroke-linecap: butt; stroke-dashoffset: 0; stroke-linejoin: miter; stroke-miterlimit: 4; fill: rgb(119,63,155); fill-rule: evenodd; opacity: 1;" vector-effect="non-scaling-stroke"  transform=" translate(-562.49, -685.76)" d="M 532.767828 718.808174 C 569.868169 774.571769 637.184505 812.035897 628.776794 761.761499 C 620.369084 711.487101 495.48415 548.324178 495.48415 594.187609 C 495.48415 612.560198 507.973051 681.540434 532.767828 718.808174 Z" stroke-linecap="round" />
</g>
		<g transform="matrix(0.26 0 0 0.26 -62.66 46.73)"  >
<path style="stroke: none; stroke-width: 1; stroke-dasharray: none; stroke-linecap: butt; stroke-dashoffset: 0; stroke-linejoin: miter; stroke-miterlimit: 4; fill: rgb(55,15,80); fill-rule: evenodd; opacity: 1;" vector-effect="non-scaling-stroke"  transform=" translate(-75.83, -743.11)" d="M 20.7745333 782.389441 C 29.9526437 785.155791 49.3488805 755.385111 71.5452244 732.643561 C 95.9745472 707.614183 142.820548 679.73631 138.90758 694.054084 C 137.158066 700.455655 89.8187993 730.515105 79.4480777 740.213526 C 60.9750919 757.488968 25.0971909 797.295783 24.1546763 796.045847 C 21.7423979 792.846753 1.49498354 776.578441 20.7745333 782.389441 Z" stroke-linecap="round" />
</g>
		<g transform="matrix(0.26 0 0 0.26 62.44 45.48)"  >
<path style="stroke: none; stroke-width: 1; stroke-dasharray: none; stroke-linecap: butt; stroke-dashoffset: 0; stroke-linejoin: miter; stroke-miterlimit: 4; fill: rgb(55,15,80); fill-rule: evenodd; opacity: 1;" vector-effect="non-scaling-stroke"  transform=" translate(-554.69, -738.3)" d="M 547.217002 741.822177 C 539.854775 705.914449 537.410808 674.26088 541.046875 674.260881 C 542.963293 674.260881 556.499108 726.843672 562.438141 750.755407 C 567.767382 772.211996 573.401334 792.308942 567.444727 796.774322 C 561.532183 801.206668 566.246856 803.21445 565.304341 801.964515 C 563.861318 800.050819 558.177855 795.281454 547.217002 741.822177 Z" stroke-linecap="round" />
</g>
		<g transform="matrix(0.26 0 0 0.26 -0.39 -30.61)"  >
<path style="stroke: none; stroke-width: 1; stroke-dasharray: none; stroke-linecap: butt; stroke-dashoffset: 0; stroke-linejoin: miter; stroke-miterlimit: 4; fill: rgb(59,118,22); fill-rule: evenodd; opacity: 1;" vector-effect="non-scaling-stroke"  transform=" translate(-127.13, -93.96)" d="M 119.410698 159.477364 C 179.519104 159.477364 211.621375 99.5906105 211.621375 53.7271794 C 211.621375 12.1525284 195.860422 33.5078459 142.267579 38.0111878 C 136.739019 38.4757459 42.6393234 7.86374904 42.6393234 53.7271801 C 42.6393234 99.5906112 59.3022912 159.477364 119.410698 159.477364 Z" stroke-linecap="round" />
</g>
		<g transform="matrix(0.26 0 0 0.26 -0.02 -31.16)"  >
<path style="stroke: none; stroke-width: 1; stroke-dasharray: none; stroke-linecap: butt; stroke-dashoffset: 0; stroke-linejoin: miter; stroke-miterlimit: 4; fill: rgb(163,255,189); fill-rule: evenodd; opacity: 1;" vector-effect="non-scaling-stroke"  transform=" translate(-128.56, -91.84)" d="M 123.706851 139.756868 C 168.788156 139.756868 197.300862 104.542445 197.300862 68.1679995 C 197.300862 31.7935542 168.788156 47.1499541 123.706851 47.1499541 C 78.6255466 47.1499541 59.8239388 31.7935542 59.8239388 68.1679995 C 59.8239388 104.542445 78.6255466 139.756868 123.706851 139.756868 Z" stroke-linecap="round" />
</g>
		<g transform="matrix(0.26 0 0 0.26 2.08 -33.32)"  >
<ellipse style="stroke: none; stroke-width: 1; stroke-dasharray: none; stroke-linecap: butt; stroke-dashoffset: 0; stroke-linejoin: miter; stroke-miterlimit: 4; fill: rgb(85,0,114); fill-rule: evenodd; opacity: 1;" vector-effect="non-scaling-stroke"  cx="0" cy="0" rx="17.1846154" ry="15.7495512" />
</g>
		<g transform="matrix(-0.26 0 0 -0.26 -4.28 -47.28)"  >
<path style="stroke: none; stroke-width: 1; stroke-dasharray: none; stroke-linecap: butt; stroke-dashoffset: 0; stroke-linejoin: miter; stroke-miterlimit: 4; fill: rgb(55,15,80); fill-rule: evenodd; opacity: 1;" vector-effect="non-scaling-stroke"  transform=" translate(-112.25, -30.15)" d="M 92.2520692 31.2724142 C 32.9310508 27.1829862 0.49450205 59.6294838 0.49450205 59.6294838 C 0.49450205 59.6294838 30.2962131 -3.762703 98.3191891 0.926613958 C 166.342165 5.61593092 224.000787 48.0690027 224.000787 48.0690027 C 224.000787 48.0690027 151.573087 35.3618421 92.2520692 31.2724142 Z" stroke-linecap="round" />
</g>
		<g transform="matrix(-0.26 0 0 -0.26 5.82 5.38)"  >
<path style="stroke: none; stroke-width: 1; stroke-dasharray: none; stroke-linecap: butt; stroke-dashoffset: 0; stroke-linejoin: miter; stroke-miterlimit: 4; fill: rgb(55,15,80); fill-rule: evenodd; opacity: 1;" vector-effect="non-scaling-stroke"  transform=" translate(-366.96, -632.8)" d="M 364.409529 635.867659 C 423.730547 631.778231 442.812475 659.368941 442.812475 659.368941 C 442.812475 659.368941 432.43251 601.818336 364.409534 606.507653 C 296.386558 611.19697 291.11573 653.641831 291.11573 653.641831 C 291.11573 653.641831 305.08851 639.957087 364.409529 635.867659 Z" stroke-linecap="round" />
</g>
		<g transform="matrix(2.93 0 0 2.93 69.65 -119.41)"  >
<path style="stroke: rgb(55,15,80); stroke-width: 1; stroke-dasharray: none; stroke-linecap: butt; stroke-dashoffset: 0; stroke-linejoin: miter; stroke-miterlimit: 4; fill: rgb(119,63,155); fill-rule: nonzero; opacity: 1;" vector-effect="non-scaling-stroke"  transform=" translate(-12, -12)" d="M 15.891 17.016 L 19.125 17.016 L 17.484 12.656999999999998 z M 18.516 9.984 L 23.016 21.984 L 21 21.984 L 19.875 18.984 L 15.141 18.984 L 14.016 21.984 L 12 21.984 L 16.5 9.984000000000002 L 18.516 9.984000000000002 z M 12.891 15.047 L 12.094 17.11 L 9 14.016 L 3.984 18.985 L 2.5780000000000003 17.579 L 7.687 12.563 Q 5.812 10.5 4.687 8.016000000000002 L 6.703 8.016000000000002 Q 7.687 9.891000000000002 9 11.344000000000001 Q 11.156 8.953000000000001 12.188 6.000000000000001 L 0.9850000000000012 6.000000000000001 L 0.9850000000000012 3.984000000000001 L 8.016000000000002 3.984000000000001 L 8.016000000000002 2.0150000000000006 L 9.985000000000001 2.0150000000000006 L 9.985000000000001 3.984000000000001 L 17.016000000000002 3.984000000000001 L 17.016000000000002 6.000000000000001 L 14.063000000000002 6.000000000000001 Q 13.594000000000003 7.500000000000001 12.516000000000002 9.398000000000001 Q 11.438 11.296000000000003 10.360000000000001 12.515 L 10.313 12.562000000000001 z" stroke-linecap="round" />
</g>
</g>
</g>
</svg>
